<?xml version="1.0" encoding="UTF-8"?>
<!DOCTYPE svg PUBLIC "-//W3C//DTD SVG 1.1//EN" "http://www.w3.org/Graphics/SVG/1.1/DTD/svg11.dtd">
<svg xmlns="http://www.w3.org/2000/svg" version="1.1" width="313px" height="252px" style="shape-rendering:geometricPrecision; text-rendering:geometricPrecision; image-rendering:optimizeQuality; fill-rule:evenodd; clip-rule:evenodd" xmlns:xlink="http://www.w3.org/1999/xlink">
<g><path style="opacity:1" fill="#fdfdfc" d="M -0.5,-0.5 C 103.833,-0.5 208.167,-0.5 312.5,-0.5C 312.5,83.5 312.5,167.5 312.5,251.5C 208.167,251.5 103.833,251.5 -0.5,251.5C -0.5,167.5 -0.5,83.5 -0.5,-0.5 Z"/></g>
<g><path style="opacity:1" fill="#d6a331" d="M 200.5,98.5 C 200.162,115.026 199.162,131.359 197.5,147.5C 183.684,140.378 169.017,136.045 153.5,134.5C 148.075,133.016 142.409,132.349 136.5,132.5C 127.247,132.524 118.247,133.524 109.5,135.5C 96.8984,138.133 84.8984,142.466 73.5,148.5C 72.8333,132.167 72.1667,115.833 71.5,99.5C 62.861,95.8494 54.1943,92.1827 45.5,88.5C 44.791,87.596 43.791,87.2627 42.5,87.5C 42.1686,116.671 42.502,145.671 43.5,174.5C 47.1053,176.54 48.772,179.706 48.5,184C 48.5191,187.005 47.8525,189.838 46.5,192.5C 50.1013,202.527 51.2679,212.86 50,223.5C 43.0081,228.697 36.0081,228.697 29,223.5C 27.5826,212.421 29.0826,201.754 33.5,191.5C 31.5776,187.701 31.0776,183.701 32,179.5C 32.7083,178.619 33.5416,177.953 34.5,177.5C 35.4959,177.586 36.3292,177.252 37,176.5C 37.8306,145.664 37.6639,114.997 36.5,84.5C 35.8333,84.1667 35.1667,83.8333 34.5,83.5C 26.8056,80.0068 18.9723,76.6735 11,73.5C 9.27404,72.3521 9.44071,71.1855 11.5,70C 52.553,51.3929 93.7197,32.8929 135,14.5C 177.31,32.7606 219.477,51.0939 261.5,69.5C 242.619,79.1034 223.286,87.9367 203.5,96C 202.429,96.8518 201.429,97.6851 200.5,98.5 Z"/></g>
<g><path style="opacity:1" fill="#cdaa53" d="M 36.5,84.5 C 37.6639,114.997 37.8306,145.664 37,176.5C 36.3292,177.252 35.4959,177.586 34.5,177.5C 34.8333,176.833 35.1667,176.167 35.5,175.5C 36.4981,145.338 36.8315,115.005 36.5,84.5 Z"/></g>
<g><path style="opacity:1" fill="#f3e5ba" d="M 45.5,88.5 C 43.5082,116.814 42.8415,145.481 43.5,174.5C 42.502,145.671 42.1686,116.671 42.5,87.5C 43.791,87.2627 44.791,87.596 45.5,88.5 Z"/></g>
<g><path style="opacity:1" fill="#fefbe0" d="M 34.5,83.5 C 35.1667,83.8333 35.8333,84.1667 36.5,84.5C 36.8315,115.005 36.4981,145.338 35.5,175.5C 35.818,144.79 35.4847,114.123 34.5,83.5 Z"/></g>
<g><path style="opacity:1" fill="#909090" d="M 235.5,127.5 C 236.165,125.302 236.832,122.969 237.5,120.5C 238.833,123.833 238.833,127.167 237.5,130.5C 236.081,129.995 235.415,128.995 235.5,127.5 Z"/></g>
<g><path style="opacity:1" fill="#a9a9a9" d="M 243.5,121.5 C 245.228,119.076 247.228,118.91 249.5,121C 247.527,121.495 245.527,121.662 243.5,121.5 Z"/></g>
<g><path style="opacity:1" fill="#969696" d="M 216.5,119.5 C 222.966,120.623 222.966,121.29 216.5,121.5C 216.671,124.797 216.005,125.131 214.5,122.5C 215.193,121.482 215.859,120.482 216.5,119.5 Z"/></g>
<g><path style="opacity:1" fill="#ababab" d="M 224.5,119.5 C 225.787,120.871 226.453,122.705 226.5,125C 226.167,126.833 225.833,128.667 225.5,130.5C 224.511,126.893 224.177,123.226 224.5,119.5 Z"/></g>
<g><path style="opacity:1" fill="#999999" d="M 233.5,124.5 C 232.883,124.389 232.383,124.056 232,123.5C 231.814,125.9 231.314,128.234 230.5,130.5C 229.167,126.833 229.167,123.167 230.5,119.5C 231.952,120.94 232.952,122.606 233.5,124.5 Z"/></g>
<g><path style="opacity:1" fill="#8a8a8a" d="M 252.5,119.5 C 254.604,119.201 256.604,119.534 258.5,120.5C 256.955,121.452 255.288,121.785 253.5,121.5C 253.5,122.5 253.5,123.5 253.5,124.5C 260.167,124.833 260.167,125.167 253.5,125.5C 253.5,126.833 253.5,128.167 253.5,129.5C 255.288,129.215 256.955,129.548 258.5,130.5C 256.647,131.76 254.814,131.76 253,130.5C 252.501,126.848 252.335,123.182 252.5,119.5 Z"/></g>
<g><path style="opacity:1" fill="#919191" d="M 296.5,119.5 C 298.833,119.5 301.167,119.5 303.5,119.5C 303.54,122.425 302.707,125.091 301,127.5C 300.464,125.433 300.964,123.599 302.5,122C 299.949,121.998 297.949,121.164 296.5,119.5 Z"/></g>
<g><path style="opacity:1" fill="#696969" d="M 269.5,121.5 C 269.56,120.957 269.893,120.624 270.5,120.5C 271.657,123.784 271.824,127.118 271,130.5C 270.819,127.305 270.319,124.305 269.5,121.5 Z"/></g>
<g><path style="opacity:1" fill="#767676" d="M 233.5,124.5 C 234.906,124.973 235.573,125.973 235.5,127.5C 234.094,127.027 233.427,126.027 233.5,124.5 Z"/></g>
<g><path style="opacity:1" fill="#727272" d="M 243.5,121.5 C 242.167,124.167 242.167,126.833 243.5,129.5C 242.007,128.688 241.34,127.355 241.5,125.5C 241.34,123.645 242.007,122.312 243.5,121.5 Z"/></g>
<g><path style="opacity:1" fill="#929292" d="M 279.5,119.5 C 284.825,121.581 285.825,125.081 282.5,130C 280.854,131.401 279.187,131.568 277.5,130.5C 283.892,128.445 283.892,127.111 277.5,126.5C 277.185,123.789 277.852,121.456 279.5,119.5 Z"/></g>
<g><path style="opacity:1" fill="#fbfbfb" d="M 278.5,121.5 C 279.833,121.5 281.167,121.5 282.5,121.5C 282.5,122.833 282.5,124.167 282.5,125.5C 281.167,125.5 279.833,125.5 278.5,125.5C 278.5,124.167 278.5,122.833 278.5,121.5 Z"/></g>
<g><path style="opacity:1" fill="#8c8c8c" d="M 291.5,120.5 C 293.71,121.455 294.043,122.955 292.5,125C 294.952,127.961 294.285,130.128 290.5,131.5C 286.715,130.128 286.048,127.961 288.5,125C 287.446,123.612 287.28,122.112 288,120.5C 289.292,119.209 290.458,119.209 291.5,120.5 Z"/></g>
<g><path style="opacity:1" fill="#f1f1f1" d="M 291.5,120.5 C 292.976,122.23 292.642,123.563 290.5,124.5C 287.806,122.537 288.139,121.203 291.5,120.5 Z"/></g>
<g><path style="opacity:1" fill="#f6f6f6" d="M 289.5,125.5 C 291.912,125.694 292.912,127.027 292.5,129.5C 291.167,129.5 289.833,129.5 288.5,129.5C 288.433,128.041 288.766,126.708 289.5,125.5 Z"/></g>
<g><path style="opacity:1" fill="#d1b268" d="M 71.5,99.5 C 72.1667,115.833 72.8333,132.167 73.5,148.5C 73.44,149.043 73.1067,149.376 72.5,149.5C 71.5005,132.847 71.1672,116.18 71.5,99.5 Z"/></g>
<g><path style="opacity:1" fill="#e2c787" d="M 200.5,98.5 C 200.5,115.167 200.5,131.833 200.5,148.5C 199.209,148.737 198.209,148.404 197.5,147.5C 199.162,131.359 200.162,115.026 200.5,98.5 Z"/></g>
<g><path style="opacity:1" fill="#949494" d="M 214.5,130.5 C 216.288,129.378 218.288,129.211 220.5,130C 218.635,131.8 216.635,131.966 214.5,130.5 Z"/></g>
<g><path style="opacity:1" fill="#9b9b9b" d="M 243.5,129.5 C 245.527,129.338 247.527,129.505 249.5,130C 247.228,132.09 245.228,131.924 243.5,129.5 Z"/></g>
<g><path style="opacity:1" fill="#f8f1d7" d="M 153.5,134.5 C 138.816,134.315 124.149,134.649 109.5,135.5C 118.247,133.524 127.247,132.524 136.5,132.5C 142.409,132.349 148.075,133.016 153.5,134.5 Z"/></g>
<g><path style="opacity:1" fill="#9f9f9f" d="M 253.5,143.5 C 240.496,143.333 227.496,143.5 214.5,144C 228.339,144.169 242.006,144.669 255.5,145.5C 241.5,145.5 227.5,145.5 213.5,145.5C 213.5,144.5 213.5,143.5 213.5,142.5C 227.01,142.171 240.344,142.504 253.5,143.5 Z"/></g>
<g><path style="opacity:1" fill="#222121" d="M 253.5,170.5 C 259.509,170.334 265.509,170.501 271.5,171C 277.233,173.248 279.067,177.414 277,183.5C 275.764,184.399 274.93,185.566 274.5,187C 275.546,190.051 277.379,192.551 280,194.5C 280.617,195.449 280.451,196.282 279.5,197C 276.167,197.667 272.833,197.667 269.5,197C 269.863,194.158 269.363,191.324 268,188.5C 266.89,186.963 265.39,186.297 263.5,186.5C 263.178,190.336 264.011,193.669 266,196.5C 262,197.833 258,197.833 254,196.5C 253.655,194.799 254.322,193.466 256,192.5C 256.667,186.5 256.667,180.5 256,174.5C 254.519,173.529 253.685,172.196 253.5,170.5 Z"/></g>
<g><path style="opacity:1" fill="#232222" d="M 74.5,170.5 C 78.226,170.177 81.8927,170.511 85.5,171.5C 85.0133,172.446 84.6799,173.446 84.5,174.5C 86,179.167 87.5,183.833 89,188.5C 90.5,184.667 92,180.833 93.5,177C 92.8883,174.942 91.8883,173.109 90.5,171.5C 94.1667,170.167 97.8333,170.167 101.5,171.5C 100.978,172.607 100.645,173.774 100.5,175C 101.604,178.92 102.938,182.754 104.5,186.5C 107.584,181.845 108.584,176.845 107.5,171.5C 110.167,170.167 112.833,170.167 115.5,171.5C 114.855,172.646 114.022,173.646 113,174.5C 110.361,182.083 107.528,189.583 104.5,197C 102.888,197.72 101.388,197.554 100,196.5C 98.3333,191.833 96.6667,187.167 95,182.5C 93.1363,187.091 91.4696,191.757 90,196.5C 88.3005,197.406 86.4672,197.739 84.5,197.5C 82.3401,188.016 79.0068,179.016 74.5,170.5 Z"/></g>
<g><path style="opacity:1" fill="#e9e9e9" d="M 263.5,172.5 C 269.392,173.264 271.559,176.598 270,182.5C 268.267,184.602 266.267,184.935 264,183.5C 263.501,179.848 263.335,176.182 263.5,172.5 Z"/></g>
<g><path style="opacity:1" fill="#232121" d="M 145.5,170.5 C 152.615,170.075 159.615,170.575 166.5,172C 167.966,175.039 167.633,177.872 165.5,180.5C 173.074,187.922 171.74,193.422 161.5,197C 156.5,197.667 151.5,197.667 146.5,197C 145.332,195.129 145.832,193.629 148,192.5C 148.667,186.5 148.667,180.5 148,174.5C 146.519,173.529 145.685,172.196 145.5,170.5 Z"/></g>
<g><path style="opacity:1" fill="#f2f0f1" d="M 155.5,173.5 C 160.159,173.015 161.492,174.848 159.5,179C 158.207,179.49 156.873,179.657 155.5,179.5C 155.5,177.5 155.5,175.5 155.5,173.5 Z"/></g>
<g><path style="opacity:1" fill="#252425" d="M 198.5,180.5 C 198.217,179.711 197.717,179.044 197,178.5C 196.184,183.684 196.35,188.684 197.5,193.5C 198.234,194.708 198.567,196.041 198.5,197.5C 196.167,197.5 193.833,197.5 191.5,197.5C 193.508,190.382 194.008,183.049 193,175.5C 192.365,174.034 191.531,172.7 190.5,171.5C 193.446,170.345 196.446,170.179 199.5,171C 203.682,175.349 208.015,179.515 212.5,183.5C 214.009,179.271 213.676,175.271 211.5,171.5C 214.106,170.348 216.773,170.182 219.5,171C 219,171.5 218.5,172 218,172.5C 217.667,180.5 217.333,188.5 217,196.5C 215.989,197.337 214.822,197.67 213.5,197.5C 209.645,190.969 204.645,185.302 198.5,180.5 Z"/></g>
<g><path style="opacity:1" fill="#252424" d="M 230.5,170.5 C 234.007,169.994 237.174,170.66 240,172.5C 243.211,181.017 246.378,189.184 249.5,197C 245.848,197.499 242.182,197.665 238.5,197.5C 240.672,189.682 237.838,187.349 230,190.5C 229.985,192.791 229.818,194.958 229.5,197C 227.19,197.497 224.857,197.663 222.5,197.5C 225.919,190.152 229.252,182.652 232.5,175C 231.586,173.594 230.92,172.094 230.5,170.5 Z"/></g>
<g><path style="opacity:1" fill="#2c2b2b" d="M 174.5,170.5 C 178.5,170.5 182.5,170.5 186.5,170.5C 184.985,174.603 184.318,178.936 184.5,183.5C 184.355,188.382 185.022,193.049 186.5,197.5C 182.5,197.5 178.5,197.5 174.5,197.5C 177.135,188.487 177.135,179.487 174.5,170.5 Z"/></g>
<g><path style="opacity:1" fill="#949292" d="M 198.5,180.5 C 197.515,184.634 197.182,188.968 197.5,193.5C 196.35,188.684 196.184,183.684 197,178.5C 197.717,179.044 198.217,179.711 198.5,180.5 Z"/></g>
<g><path style="opacity:1" fill="#e6e5e5" d="M 233.5,180.5 C 234.376,180.369 235.043,180.702 235.5,181.5C 238.623,186.385 237.29,187.718 231.5,185.5C 232.456,183.925 233.123,182.258 233.5,180.5 Z"/></g>
<g><path style="opacity:1" fill="#f3f2f3" d="M 155.5,183.5 C 162.265,183.464 164.265,186.631 161.5,193C 159.527,193.495 157.527,193.662 155.5,193.5C 155.5,190.167 155.5,186.833 155.5,183.5 Z"/></g>
<g><path style="opacity:1" fill="#252424" d="M 118.5,170.5 C 125.508,170.334 132.508,170.5 139.5,171C 141.229,172.789 141.896,174.956 141.5,177.5C 138.892,177.394 136.892,176.228 135.5,174C 133.19,173.503 130.857,173.337 128.5,173.5C 128.244,175.792 128.577,177.959 129.5,180C 131.851,179.86 134.184,179.36 136.5,178.5C 137.321,181.554 137.321,184.554 136.5,187.5C 135.019,186.52 133.685,185.353 132.5,184C 131.5,183.333 130.5,183.333 129.5,184C 128.383,187.073 128.216,190.24 129,193.5C 131.064,194.591 133.231,194.758 135.5,194C 139.893,185.059 141.726,185.559 141,195.5C 140.5,196 140,196.5 139.5,197C 132.833,197.667 126.167,197.667 119.5,197C 118.332,195.129 118.832,193.629 121,192.5C 121.667,186.5 121.667,180.5 121,174.5C 119.519,173.529 118.685,172.196 118.5,170.5 Z"/></g>
<g><path style="opacity:1" fill="#383838" d="M 87.5,209.5 C 78.9012,208.936 75.4012,212.936 77,221.5C 77.9973,223.323 79.1639,224.99 80.5,226.5C 78.2475,226.084 76.7475,224.751 76,222.5C 73.7002,211.983 77.5335,207.65 87.5,209.5 Z"/></g>
<g><path style="opacity:1" fill="#afafaf" d="M 109.5,208.5 C 109.666,213.844 109.499,219.177 109,224.5C 108.283,223.956 107.783,223.289 107.5,222.5C 108.167,217.833 108.833,213.167 109.5,208.5 Z"/></g>
<g><path style="opacity:1" fill="#f5f5f5" d="M 87.5,209.5 C 90.3243,213.36 91.1577,217.693 90,222.5C 87.8504,225.963 84.6838,227.296 80.5,226.5C 79.1639,224.99 77.9973,223.323 77,221.5C 75.4012,212.936 78.9012,208.936 87.5,209.5 Z"/></g>
<g><path style="opacity:1" fill="#1d1d1d" d="M 156.5,216.5 C 156.5,217.167 156.5,217.833 156.5,218.5C 156.5,221.167 156.5,223.833 156.5,226.5C 159.518,226.335 162.518,226.502 165.5,227C 162.183,227.498 158.85,227.665 155.5,227.5C 155.5,221.167 155.5,214.833 155.5,208.5C 158.85,208.335 162.183,208.502 165.5,209C 162.518,209.498 159.518,209.665 156.5,209.5C 156.5,211.833 156.5,214.167 156.5,216.5 Z"/></g>
<g><path style="opacity:1" fill="#3b3b3b" d="M 192.5,212.5 C 192.574,210.589 193.574,209.422 195.5,209C 198.167,208.333 200.833,208.333 203.5,209C 199.362,208.936 195.696,210.103 192.5,212.5 Z"/></g>
<g><path style="opacity:1" fill="#f6f6f6" d="M 241.5,222.5 C 239.153,225.917 235.82,227.251 231.5,226.5C 226.214,220.998 226.214,215.498 231.5,210C 234.588,209.153 237.421,209.653 240,211.5C 241.337,215.026 241.837,218.692 241.5,222.5 Z"/></g>
<g><path style="opacity:1" fill="#eeeeee" d="M 258.5,209.5 C 261.813,214.153 262.313,219.153 260,224.5C 255.908,227.249 252.075,226.916 248.5,223.5C 246.696,218.183 247.696,213.516 251.5,209.5C 253.833,208.167 256.167,208.167 258.5,209.5 Z"/></g>
<g><path style="opacity:1" fill="#1f1f1f" d="M 139.5,212.5 C 138.883,212.389 138.383,212.056 138,211.5C 137.667,216.833 137.333,222.167 137,227.5C 136.333,221.167 136.333,214.833 137,208.5C 138.481,209.471 139.315,210.804 139.5,212.5 Z"/></g>
<g><path style="opacity:1" fill="#5d5d5d" d="M 115.5,208.5 C 117.453,214.074 118.12,220.074 117.5,226.5C 120.518,226.335 123.518,226.502 126.5,227C 122.848,227.499 119.182,227.665 115.5,227.5C 115.5,221.167 115.5,214.833 115.5,208.5 Z"/></g>
<g><path style="opacity:1" fill="#464646" d="M 178.5,208.5 C 181.247,208.187 183.914,208.52 186.5,209.5C 184.43,209.552 182.097,209.719 179.5,210C 177.485,211.555 177.152,213.389 178.5,215.5C 181.58,216.789 184.414,218.455 187,220.5C 187.913,223.352 187.08,225.519 184.5,227C 181.833,227.667 179.167,227.667 176.5,227C 178.833,226.667 181.167,226.333 183.5,226C 185.698,224.33 186.032,222.33 184.5,220C 181.204,218.776 178.371,216.942 176,214.5C 175.333,213.5 175.333,212.5 176,211.5C 177.045,210.627 177.878,209.627 178.5,208.5 Z"/></g>
<g><path style="opacity:1" fill="#7b7b7b" d="M 129.5,208.5 C 130.818,211.258 131.485,214.424 131.5,218C 131.167,221.167 130.833,224.333 130.5,227.5C 129.504,221.202 129.17,214.868 129.5,208.5 Z"/></g>
<g><path style="opacity:1" fill="#353535" d="M 143.5,218.5 C 145.223,220.253 146.723,222.253 148,224.5C 148.333,219.167 148.667,213.833 149,208.5C 149.667,214.833 149.667,221.167 149,227.5C 146.517,224.861 144.684,221.861 143.5,218.5 Z"/></g>
<g><path style="opacity:1" fill="#444444" d="M 258.5,209.5 C 260.017,209.511 261.184,210.177 262,211.5C 264.62,217.646 263.454,222.813 258.5,227C 256.167,227.667 253.833,227.667 251.5,227C 249.574,226.578 248.574,225.411 248.5,223.5C 252.075,226.916 255.908,227.249 260,224.5C 262.313,219.153 261.813,214.153 258.5,209.5 Z"/></g>
<g><path style="opacity:1" fill="#414141" d="M 139.5,212.5 C 141.326,214.147 142.66,216.147 143.5,218.5C 141.178,217.198 139.845,215.198 139.5,212.5 Z"/></g>
<g><path style="opacity:1" fill="#5e5e5e" d="M 192.5,212.5 C 192.5,216.167 192.5,219.833 192.5,223.5C 191.883,223.389 191.383,223.056 191,222.5C 190.333,219.5 190.333,216.5 191,213.5C 191.383,212.944 191.883,212.611 192.5,212.5 Z"/></g>
<g><path style="opacity:1" fill="#434343" d="M 241.5,222.5 C 241.837,218.692 241.337,215.026 240,211.5C 237.421,209.653 234.588,209.153 231.5,210C 226.214,215.498 226.214,220.998 231.5,226.5C 227.193,225.336 225.526,222.502 226.5,218C 227.438,208.411 232.271,205.911 241,210.5C 243.971,214.554 244.138,218.554 241.5,222.5 Z"/></g>
<g><path style="opacity:1" fill="#373737" d="M 251.5,209.5 C 247.696,213.516 246.696,218.183 248.5,223.5C 247.778,223.082 247.278,222.416 247,221.5C 246.333,218.833 246.333,216.167 247,213.5C 247.748,211.249 249.248,209.916 251.5,209.5 Z"/></g>
<g><path style="opacity:1" fill="#3c3c3c" d="M 109.5,208.5 C 112.87,230.392 109.87,232.059 100.5,213.5C 103.185,216.19 105.518,219.19 107.5,222.5C 107.783,223.289 108.283,223.956 109,224.5C 109.499,219.177 109.666,213.844 109.5,208.5 Z"/></g>
<g><path style="opacity:1" fill="#757575" d="M 156.5,216.5 C 168.5,217.167 168.5,217.833 156.5,218.5C 156.5,217.833 156.5,217.167 156.5,216.5 Z"/></g>
<g><path style="opacity:1" fill="#5a5a5a" d="M 207.5,208.5 C 209.369,210.635 210.036,213.302 209.5,216.5C 213.167,216.5 216.833,216.5 220.5,216.5C 221.854,218.271 221.854,218.938 220.5,218.5C 216.833,218.5 213.167,218.5 209.5,218.5C 209.817,221.572 209.484,224.572 208.5,227.5C 207.504,221.202 207.17,214.868 207.5,208.5 Z"/></g>
<g><path style="opacity:1" fill="#444444" d="M 100.5,213.5 C 99.2101,212.942 98.3768,211.942 98,210.5C 97.6667,216.167 97.3333,221.833 97,227.5C 96.1694,221.141 96.3361,214.807 97.5,208.5C 99.2623,209.688 100.262,211.355 100.5,213.5 Z"/></g>
<g><path style="opacity:1" fill="#4b4b4b" d="M 267.5,208.5 C 269.453,214.074 270.12,220.074 269.5,226.5C 272.187,226.336 274.854,226.503 277.5,227C 274.183,227.498 270.85,227.665 267.5,227.5C 267.5,221.167 267.5,214.833 267.5,208.5 Z"/></g>
<g><path style="opacity:1" fill="#4e4e4e" d="M 241.5,222.5 C 241.863,224.911 240.863,226.411 238.5,227C 235.961,227.796 233.628,227.629 231.5,226.5C 235.82,227.251 239.153,225.917 241.5,222.5 Z"/></g>
<g><path style="opacity:1" fill="#474747" d="M 87.5,209.5 C 89.6237,210.031 91.1237,211.365 92,213.5C 92.7011,216.928 92.3677,220.262 91,223.5C 90.5,225.333 89.3333,226.5 87.5,227C 84.9615,227.796 82.6282,227.629 80.5,226.5C 84.6838,227.296 87.8504,225.963 90,222.5C 91.1577,217.693 90.3243,213.36 87.5,209.5 Z"/></g>
<g><path style="opacity:1" fill="#2e2e2e" d="M 192.5,223.5 C 195.696,225.897 199.362,227.064 203.5,227C 200.833,227.667 198.167,227.667 195.5,227C 193.574,226.578 192.574,225.411 192.5,223.5 Z"/></g>
<g><path style="opacity:1" fill="#c4c4c4" d="M 305.5,244.5 C 213.995,244.834 122.662,245.834 31.5,247.5C 30.596,246.791 30.2627,245.791 30.5,244.5C 122.167,244.5 213.833,244.5 305.5,244.5 Z"/></g>
<g><path style="opacity:1" fill="#5b5b5b" d="M 253.5,143.5 C 271.5,143.5 289.5,143.5 307.5,143.5C 307.829,178.073 307.496,212.573 306.5,247C 214.834,247.5 123.167,247.667 31.5,247.5C 122.662,245.834 213.995,244.834 305.5,244.5C 305.5,211.5 305.5,178.5 305.5,145.5C 288.833,145.5 272.167,145.5 255.5,145.5C 242.006,144.669 228.339,144.169 214.5,144C 227.496,143.5 240.496,143.333 253.5,143.5 Z"/></g>
</svg>
